<svg xmlns="http://www.w3.org/2000/svg" width="112" height="107.257" viewBox="0 0 112 107.257"><defs><style>.a,.b,.c{fill:#00a2d9;font-family:Anton-Regular, Anton;}.a{font-size:47px;}.b{font-size:29px;}.c{font-size:11px;}.d{fill:#fff;font-size:12px;font-family:Calligraffitti-Regular, Calligraffitti;}</style></defs><g transform="translate(-628 -20)"><path d="M16.173,43.392q1.281-1.222.142-.232.527-.464,1.054-.9,1.27-1.021,2.635-1.925a52.075,52.075,0,0,1,4.743-2.83c.348-.183,2.53-1.259,1.017-.538.964-.458,1.94-.9,2.915-1.338,1.934-.868,3.879-1.711,5.8-2.567,8.359-3.7,16.692-7.481,25.019-11.258,4.622-2.09,8.333-7.468,6.667-13.55C64.714,3.067,59.443-1.676,54.494.573c-8.96,4.07-17.92,8.141-26.948,12.113-8.923,3.936-17.508,7.847-24.787,15.126-3.768,3.777-3.589,11.734,0,15.56,4.011,4.278,9.4,4.028,13.419,0Z" transform="matrix(0.934, 0.358, -0.358, 0.934, 660.257, 60)"/><text class="a" transform="translate(628 75)"><tspan x="0" y="0">12</tspan></text><text class="b" transform="translate(670 76)"><tspan x="0" y="0">BOOKS</tspan></text><text class="c" transform="translate(670 46)"><tspan x="0" y="0">PRODUCT DESIGN</tspan></text><text class="d" transform="translate(660.596 96)"><tspan x="0" y="0">Challenge</tspan></text></g></svg>